<?xml version="1.0" encoding="UTF-8" standalone="no"?>
<svg
   xmlns:dc="http://purl.org/dc/elements/1.1/"
   xmlns:cc="http://creativecommons.org/ns#"
   xmlns:rdf="http://www.w3.org/1999/02/22-rdf-syntax-ns#"
   xmlns:svg="http://www.w3.org/2000/svg"
   xmlns="http://www.w3.org/2000/svg"
   xmlns:sodipodi="http://sodipodi.sourceforge.net/DTD/sodipodi-0.dtd"
   xmlns:inkscape="http://www.inkscape.org/namespaces/inkscape"
   viewBox="0 0 32 32"
   version="1.1"
   id="svg8"
   sodipodi:docname="file_type_git2.svg"
   inkscape:version="0.92.4 5da689c313, 2019-01-14">
  <metadata
     id="metadata14">
    <rdf:RDF>
      <cc:Work
         rdf:about="">
        <dc:format>image/svg+xml</dc:format>
        <dc:type
           rdf:resource="http://purl.org/dc/dcmitype/StillImage" />
      </cc:Work>
    </rdf:RDF>
  </metadata>
  <defs
     id="defs12" />
  <sodipodi:namedview
     pagecolor="#ffffff"
     bordercolor="#666666"
     borderopacity="1"
     objecttolerance="10"
     gridtolerance="10"
     guidetolerance="10"
     inkscape:pageopacity="0"
     inkscape:pageshadow="2"
     inkscape:window-width="1366"
     inkscape:window-height="714"
     id="namedview10"
     showgrid="false"
     inkscape:zoom="10.429825"
     inkscape:cx="26.711048"
     inkscape:cy="20.376653"
     inkscape:window-x="0"
     inkscape:window-y="0"
     inkscape:window-maximized="1"
     inkscape:current-layer="svg8" />
  <title
     id="title2">file_type_git2</title>
  <path
     d="M29.472,14.753,17.247,2.528a1.8,1.8,0,0,0-2.55,0L12.158,5.067l3.22,3.22a2.141,2.141,0,0,1,2.712,2.73l3.1,3.1a2.143,2.143,0,1,1-1.285,1.21l-2.895-2.895v7.617a2.141,2.141,0,1,1-1.764-.062V12.3a2.146,2.146,0,0,1-1.165-2.814L10.911,6.314,2.528,14.7a1.8,1.8,0,0,0,0,2.551L14.753,29.472a1.8,1.8,0,0,0,2.55,0L29.472,17.3a1.8,1.8,0,0,0,0-2.551"
     id="path4"
     style="fill:#ffffff" />
  <path
     d="M12.158,5.067l3.22,3.22a2.141,2.141,0,0,1,2.712,2.73l3.1,3.1a2.143,2.143,0,1,1-1.285,1.21l-2.895-2.895v7.617a2.141,2.141,0,1,1-1.764-.062V12.3a2.146,2.146,0,0,1-1.165-2.814L10.911,6.314"
     style="fill:none"
     id="path6" />
</svg>
